<mxfile host="app.diagrams.net" agent="Mozilla/5.0 (X11; Linux x86_64) AppleWebKit/537.36 (KHTML, like Gecko) Chrome/135.0.0.0 Safari/537.36" version="26.2.5">
  <diagram name="Page-1" id="qUTJ85lVac-4XWklF-kz">
    <mxGraphModel dx="1428" dy="1817" grid="1" gridSize="10" guides="1" tooltips="1" connect="1" arrows="1" fold="1" page="1" pageScale="1" pageWidth="850" pageHeight="1100" background="none" math="0" shadow="0">
      <root>
        <mxCell id="0" />
        <mxCell id="1" parent="0" />
        <mxCell id="9fRCnHIwlonDRJPqcL05-3" value="TaxCalculator" style="swimlane;fontStyle=0;childLayout=stackLayout;horizontal=1;startSize=26;fillColor=none;horizontalStack=0;resizeParent=1;resizeParentMax=0;resizeLast=0;collapsible=1;marginBottom=0;whiteSpace=wrap;html=1;movable=1;resizable=1;rotatable=1;deletable=1;editable=1;locked=0;connectable=1;" vertex="1" parent="1">
          <mxGeometry x="90" y="80" width="260" height="340" as="geometry" />
        </mxCell>
        <mxCell id="9fRCnHIwlonDRJPqcL05-4" value="Employee&lt;div&gt;&lt;span style=&quot;white-space: pre;&quot;&gt;&#x9;&lt;/span&gt;&lt;br&gt;&lt;/div&gt;" style="text;strokeColor=none;fillColor=none;align=left;verticalAlign=top;spacingLeft=4;spacingRight=4;overflow=hidden;rotatable=1;points=[[0,0.5],[1,0.5]];portConstraint=eastwest;whiteSpace=wrap;html=1;movable=1;resizable=1;deletable=1;editable=1;locked=0;connectable=1;" vertex="1" parent="9fRCnHIwlonDRJPqcL05-3">
          <mxGeometry y="26" width="260" height="26" as="geometry" />
        </mxCell>
        <mxCell id="9fRCnHIwlonDRJPqcL05-5" value="DatabaseHandler&lt;div&gt;&lt;br&gt;&lt;/div&gt;" style="text;strokeColor=none;fillColor=none;align=left;verticalAlign=top;spacingLeft=4;spacingRight=4;overflow=hidden;rotatable=1;points=[[0,0.5],[1,0.5]];portConstraint=eastwest;whiteSpace=wrap;html=1;movable=1;resizable=1;deletable=1;editable=1;locked=0;connectable=1;" vertex="1" parent="9fRCnHIwlonDRJPqcL05-3">
          <mxGeometry y="52" width="260" height="26" as="geometry" />
        </mxCell>
        <mxCell id="9fRCnHIwlonDRJPqcL05-6" value="ReportGenerator&lt;div&gt;&lt;br&gt;&lt;div&gt;Salary Calculator&lt;/div&gt;&lt;/div&gt;&lt;div&gt;&lt;br&gt;&lt;/div&gt;&lt;div&gt;TaxCalculator&lt;/div&gt;&lt;div&gt;&lt;br&gt;&lt;/div&gt;&lt;div&gt;main&lt;/div&gt;" style="text;strokeColor=none;fillColor=none;align=left;verticalAlign=top;spacingLeft=4;spacingRight=4;overflow=hidden;rotatable=1;points=[[0,0.5],[1,0.5]];portConstraint=eastwest;whiteSpace=wrap;html=1;movable=1;resizable=1;deletable=1;editable=1;locked=0;connectable=1;" vertex="1" parent="9fRCnHIwlonDRJPqcL05-3">
          <mxGeometry y="78" width="260" height="262" as="geometry" />
        </mxCell>
        <mxCell id="9fRCnHIwlonDRJPqcL05-15" style="edgeStyle=orthogonalEdgeStyle;rounded=0;orthogonalLoop=1;jettySize=auto;html=1;entryX=0.386;entryY=0.846;entryDx=0;entryDy=0;entryPerimeter=0;movable=1;resizable=1;rotatable=1;deletable=1;editable=1;locked=0;connectable=1;" edge="1" parent="1" source="9fRCnHIwlonDRJPqcL05-12" target="9fRCnHIwlonDRJPqcL05-4">
          <mxGeometry relative="1" as="geometry" />
        </mxCell>
        <mxCell id="9fRCnHIwlonDRJPqcL05-18" style="edgeStyle=orthogonalEdgeStyle;rounded=0;orthogonalLoop=1;jettySize=auto;html=1;entryX=0.5;entryY=0;entryDx=0;entryDy=0;movable=1;resizable=1;rotatable=1;deletable=1;editable=1;locked=0;connectable=1;" edge="1" parent="1" source="9fRCnHIwlonDRJPqcL05-12" target="9fRCnHIwlonDRJPqcL05-16">
          <mxGeometry relative="1" as="geometry" />
        </mxCell>
        <mxCell id="9fRCnHIwlonDRJPqcL05-12" value="Name&lt;br&gt;Salary" style="html=1;whiteSpace=wrap;movable=1;resizable=1;rotatable=1;deletable=1;editable=1;locked=0;connectable=1;" vertex="1" parent="1">
          <mxGeometry x="490" y="80" width="110" height="50" as="geometry" />
        </mxCell>
        <mxCell id="9fRCnHIwlonDRJPqcL05-16" value="" style="shape=datastore;whiteSpace=wrap;html=1;movable=1;resizable=1;rotatable=1;deletable=1;editable=1;locked=0;connectable=1;" vertex="1" parent="1">
          <mxGeometry x="660" y="140" width="60" height="60" as="geometry" />
        </mxCell>
        <mxCell id="9fRCnHIwlonDRJPqcL05-21" style="edgeStyle=orthogonalEdgeStyle;rounded=0;orthogonalLoop=1;jettySize=auto;html=1;entryX=0;entryY=0.5;entryDx=0;entryDy=0;exitX=0.486;exitY=0.846;exitDx=0;exitDy=0;exitPerimeter=0;movable=1;resizable=1;rotatable=1;deletable=1;editable=1;locked=0;connectable=1;" edge="1" parent="1" source="9fRCnHIwlonDRJPqcL05-5" target="9fRCnHIwlonDRJPqcL05-16">
          <mxGeometry relative="1" as="geometry" />
        </mxCell>
        <mxCell id="9fRCnHIwlonDRJPqcL05-26" style="edgeStyle=orthogonalEdgeStyle;rounded=0;orthogonalLoop=1;jettySize=auto;html=1;exitX=1;exitY=0.25;exitDx=0;exitDy=0;movable=1;resizable=1;rotatable=1;deletable=1;editable=1;locked=0;connectable=1;" edge="1" parent="1" source="9fRCnHIwlonDRJPqcL05-22">
          <mxGeometry relative="1" as="geometry">
            <mxPoint x="750" y="250" as="targetPoint" />
          </mxGeometry>
        </mxCell>
        <mxCell id="9fRCnHIwlonDRJPqcL05-22" value="app db" style="rounded=1;whiteSpace=wrap;html=1;movable=1;resizable=1;rotatable=1;deletable=1;editable=1;locked=0;connectable=1;" vertex="1" parent="1">
          <mxGeometry x="660" y="170" width="60" height="30" as="geometry" />
        </mxCell>
        <mxCell id="9fRCnHIwlonDRJPqcL05-24" style="edgeStyle=orthogonalEdgeStyle;rounded=0;orthogonalLoop=1;jettySize=auto;html=1;entryX=0.476;entryY=0.18;entryDx=0;entryDy=0;exitX=0.5;exitY=1;exitDx=0;exitDy=0;entryPerimeter=0;movable=1;resizable=1;rotatable=1;deletable=1;editable=1;locked=0;connectable=1;" edge="1" parent="1" source="9fRCnHIwlonDRJPqcL05-22" target="9fRCnHIwlonDRJPqcL05-6">
          <mxGeometry relative="1" as="geometry" />
        </mxCell>
        <mxCell id="9fRCnHIwlonDRJPqcL05-25" style="edgeStyle=orthogonalEdgeStyle;rounded=0;orthogonalLoop=1;jettySize=auto;html=1;entryX=0.269;entryY=0.313;entryDx=0;entryDy=0;entryPerimeter=0;movable=1;resizable=1;rotatable=1;deletable=1;editable=1;locked=0;connectable=1;" edge="1" parent="1" target="9fRCnHIwlonDRJPqcL05-6">
          <mxGeometry relative="1" as="geometry">
            <mxPoint x="760" y="250" as="sourcePoint" />
            <mxPoint x="250" y="250" as="targetPoint" />
          </mxGeometry>
        </mxCell>
        <mxCell id="9fRCnHIwlonDRJPqcL05-27" value="Salary report" style="rounded=1;whiteSpace=wrap;html=1;movable=1;resizable=1;rotatable=1;deletable=1;editable=1;locked=0;connectable=1;" vertex="1" parent="1">
          <mxGeometry x="510" y="350" width="100" height="50" as="geometry" />
        </mxCell>
        <mxCell id="9fRCnHIwlonDRJPqcL05-28" style="edgeStyle=orthogonalEdgeStyle;rounded=0;orthogonalLoop=1;jettySize=auto;html=1;entryX=0;entryY=0.16;entryDx=0;entryDy=0;exitX=0;exitY=0.5;exitDx=0;exitDy=0;entryPerimeter=0;movable=1;resizable=1;rotatable=1;deletable=1;editable=1;locked=0;connectable=1;" edge="1" parent="1" source="9fRCnHIwlonDRJPqcL05-27">
          <mxGeometry relative="1" as="geometry">
            <mxPoint x="650" y="410.1" as="sourcePoint" />
            <mxPoint x="180" y="210.01999999999995" as="targetPoint" />
          </mxGeometry>
        </mxCell>
        <mxCell id="9fRCnHIwlonDRJPqcL05-29" style="edgeStyle=orthogonalEdgeStyle;rounded=0;orthogonalLoop=1;jettySize=auto;html=1;entryX=0.867;entryY=1;entryDx=0;entryDy=0;entryPerimeter=0;movable=1;resizable=1;rotatable=1;deletable=1;editable=1;locked=0;connectable=1;" edge="1" parent="1" source="9fRCnHIwlonDRJPqcL05-27" target="9fRCnHIwlonDRJPqcL05-22">
          <mxGeometry relative="1" as="geometry" />
        </mxCell>
        <mxCell id="9fRCnHIwlonDRJPqcL05-30" value="" style="endArrow=classic;html=1;rounded=0;exitX=0;exitY=0.389;exitDx=0;exitDy=0;exitPerimeter=0;movable=1;resizable=1;rotatable=1;deletable=1;editable=1;locked=0;connectable=1;" edge="1" parent="1" source="9fRCnHIwlonDRJPqcL05-6">
          <mxGeometry width="50" height="50" relative="1" as="geometry">
            <mxPoint x="240" y="540" as="sourcePoint" />
            <mxPoint x="90" y="560" as="targetPoint" />
          </mxGeometry>
        </mxCell>
        <mxCell id="9fRCnHIwlonDRJPqcL05-32" style="edgeStyle=orthogonalEdgeStyle;rounded=0;orthogonalLoop=1;jettySize=auto;html=1;movable=1;resizable=1;rotatable=1;deletable=1;editable=1;locked=0;connectable=1;" edge="1" parent="1" source="9fRCnHIwlonDRJPqcL05-31">
          <mxGeometry relative="1" as="geometry">
            <mxPoint x="90" y="560" as="targetPoint" />
          </mxGeometry>
        </mxCell>
        <mxCell id="9fRCnHIwlonDRJPqcL05-34" style="edgeStyle=orthogonalEdgeStyle;rounded=0;orthogonalLoop=1;jettySize=auto;html=1;movable=1;resizable=1;rotatable=1;deletable=1;editable=1;locked=0;connectable=1;" edge="1" parent="1" source="9fRCnHIwlonDRJPqcL05-35">
          <mxGeometry relative="1" as="geometry">
            <mxPoint x="750" y="480" as="targetPoint" />
          </mxGeometry>
        </mxCell>
        <mxCell id="9fRCnHIwlonDRJPqcL05-31" value="Main program&lt;br&gt;CLI/GUI" style="rounded=1;whiteSpace=wrap;html=1;movable=1;resizable=1;rotatable=1;deletable=1;editable=1;locked=0;connectable=1;" vertex="1" parent="1">
          <mxGeometry x="180" y="680" width="120" height="60" as="geometry" />
        </mxCell>
        <mxCell id="9fRCnHIwlonDRJPqcL05-33" value="AppCore" style="shape=umlFrame;whiteSpace=wrap;html=1;pointerEvents=0;movable=1;resizable=1;rotatable=1;deletable=1;editable=1;locked=0;connectable=1;" vertex="1" parent="1">
          <mxGeometry x="30" y="-190" width="770" height="810" as="geometry" />
        </mxCell>
        <mxCell id="9fRCnHIwlonDRJPqcL05-36" value="" style="edgeStyle=orthogonalEdgeStyle;rounded=0;orthogonalLoop=1;jettySize=auto;html=1;movable=1;resizable=1;rotatable=1;deletable=1;editable=1;locked=0;connectable=1;" edge="1" parent="1" source="9fRCnHIwlonDRJPqcL05-31" target="9fRCnHIwlonDRJPqcL05-35">
          <mxGeometry relative="1" as="geometry">
            <mxPoint x="750" y="480" as="targetPoint" />
            <mxPoint x="300" y="560" as="sourcePoint" />
          </mxGeometry>
        </mxCell>
        <mxCell id="9fRCnHIwlonDRJPqcL05-35" value="Sys call&lt;br&gt;1.CLI(menu option)&lt;div&gt;2.GUI(.TaxCalculator+parameter)&lt;/div&gt;" style="rounded=1;whiteSpace=wrap;html=1;movable=1;resizable=1;rotatable=1;deletable=1;editable=1;locked=0;connectable=1;" vertex="1" parent="1">
          <mxGeometry x="490" y="680" width="200" height="60" as="geometry" />
        </mxCell>
        <mxCell id="9fRCnHIwlonDRJPqcL05-38" value="Company" style="swimlane;whiteSpace=wrap;html=1;movable=1;resizable=1;rotatable=1;deletable=1;editable=1;locked=0;connectable=1;" vertex="1" parent="1">
          <mxGeometry x="50" y="-140" width="730" height="700" as="geometry" />
        </mxCell>
        <mxCell id="9fRCnHIwlonDRJPqcL05-45" style="edgeStyle=orthogonalEdgeStyle;rounded=0;orthogonalLoop=1;jettySize=auto;html=1;entryX=0;entryY=0.5;entryDx=0;entryDy=0;" edge="1" parent="9fRCnHIwlonDRJPqcL05-38" source="9fRCnHIwlonDRJPqcL05-40" target="9fRCnHIwlonDRJPqcL05-43">
          <mxGeometry relative="1" as="geometry" />
        </mxCell>
        <mxCell id="9fRCnHIwlonDRJPqcL05-40" value="Activity" style="swimlane;whiteSpace=wrap;html=1;movable=1;resizable=1;rotatable=1;deletable=1;editable=1;locked=0;connectable=1;" vertex="1" parent="9fRCnHIwlonDRJPqcL05-38">
          <mxGeometry x="30" y="40" width="340" height="130" as="geometry" />
        </mxCell>
        <mxCell id="9fRCnHIwlonDRJPqcL05-41" value="profit&lt;div&gt;sales&lt;/div&gt;&lt;div&gt;debts&lt;/div&gt;&lt;div&gt;dividends, etc.&lt;/div&gt;" style="text;html=1;align=center;verticalAlign=middle;resizable=0;points=[];autosize=1;strokeColor=none;fillColor=none;" vertex="1" parent="9fRCnHIwlonDRJPqcL05-40">
          <mxGeometry x="30" y="40" width="100" height="70" as="geometry" />
        </mxCell>
        <mxCell id="9fRCnHIwlonDRJPqcL05-42" value="Employee" style="text;html=1;align=center;verticalAlign=middle;resizable=0;points=[];autosize=1;strokeColor=none;fillColor=none;" vertex="1" parent="9fRCnHIwlonDRJPqcL05-40">
          <mxGeometry x="170" y="50" width="80" height="30" as="geometry" />
        </mxCell>
        <mxCell id="9fRCnHIwlonDRJPqcL05-43" value="company db" style="shape=datastore;whiteSpace=wrap;html=1;" vertex="1" parent="9fRCnHIwlonDRJPqcL05-38">
          <mxGeometry x="620" y="110" width="60" height="60" as="geometry" />
        </mxCell>
        <mxCell id="9fRCnHIwlonDRJPqcL05-44" style="edgeStyle=orthogonalEdgeStyle;rounded=0;orthogonalLoop=1;jettySize=auto;html=1;entryX=0.85;entryY=0.05;entryDx=0;entryDy=0;entryPerimeter=0;" edge="1" parent="1" source="9fRCnHIwlonDRJPqcL05-43" target="9fRCnHIwlonDRJPqcL05-16">
          <mxGeometry relative="1" as="geometry" />
        </mxCell>
      </root>
    </mxGraphModel>
  </diagram>
</mxfile>
